# File created by Blade
# Date/Time:  Thu Jan 22 16:16:06 2015
# Frame Rate: 120.000 fps
#------------------------------------------------------
:FULLY-SPECIFIED
:DEGREES
900
root 2.866100 34.341052 -7.116424 44.315250 19.748229 9.622321
RightUpLeg -34.064304 -37.987296 -13.903362
RightLeg -7.928065 -0.000000 0.000000
RightFoot -2.647475 -31.283842 35.729874
RightToeBase 13.589598 -0.000000 -0.000000
LeftUpLeg -56.583712 -1.440653 14.022605
LeftLeg -0.248619 -0.000000 0.000000
LeftFoot 7.919071 13.097960 -31.357662
LeftToeBase 11.145424 -0.000000 -0.000000
Spine 74.790970 0.713065 -11.291183
RightShoulder 14.929910 21.325857 -54.500225
RightArm 63.641034 19.258531 46.697174
RightForeArm -32.850469 -0.000000 37.686093
RightHand 5.392857 -0.000000 -12.716172
RightHandThumb1 -24.326973 -0.000000 -32.862282
LeftShoulder 11.796126 32.180415 40.323903
LeftArm 85.684769 -53.422823 -45.684768
LeftForeArm 41.602537 -0.000000 11.682753
LeftHand -16.336427 0.000000 15.973885
LeftHandThumb1 -26.253704 0.000000 33.147579
Head -15.963098 15.463388 -26.294952
901
root 2.923712 34.330487 -7.145294 45.041762 19.960866 9.968259
RightUpLeg -34.792126 -38.771163 -13.481194
RightLeg -7.960267 -0.000000 0.000000
RightFoot -2.378240 -31.151938 35.547791
RightToeBase 13.572993 -0.000000 -0.000000
LeftUpLeg -57.446012 -1.588551 13.647953
LeftLeg -0.007429 -0.000000 0.000000
LeftFoot 8.008703 12.899989 -31.080114
LeftToeBase 11.172402 -0.000000 -0.000000
Spine 74.820624 0.583049 -11.396332
RightShoulder 14.740700 21.220333 -54.553923
RightArm 64.057945 19.807616 46.235616
RightForeArm -32.901597 -0.000000 37.175429
RightHand 5.459419 -0.000000 -12.541498
RightHandThumb1 -24.326973 -0.000000 -32.862282
LeftShoulder 11.812612 32.093796 40.438980
LeftArm 85.682353 -54.035172 -45.396652
LeftForeArm 41.557859 -0.000000 11.482677
LeftHand -16.153346 -0.000000 15.102276
LeftHandThumb1 -26.253704 0.000000 33.147579
Head -16.210068 15.198195 -26.287274
902
root 2.976848 34.320181 -7.177606 45.782560 20.168274 10.302131
RightUpLeg -35.508595 -39.451619 -13.096168
RightLeg -8.006851 -0.000000 0.000000
RightFoot -2.216419 -31.095556 35.464168
RightToeBase 13.828081 -0.000000 -0.000000
LeftUpLeg -58.276248 -1.776635 13.390159
LeftLeg 0.138848 -0.000000 -0.000000
LeftFoot 8.100488 12.786193 -30.827622
LeftToeBase 11.226039 -0.000000 -0.000000
Spine 74.818886 0.477505 -11.428556
RightShoulder 14.564972 21.001948 -54.646578
RightArm 64.399464 20.449158 45.855628
RightForeArm -32.919907 -0.000000 36.811877
RightHand 5.539137 -0.000000 -12.451255
RightHandThumb1 -24.326973 -0.000000 -32.862282
LeftShoulder 11.877510 32.031316 40.636100
LeftArm 85.842978 -54.650633 -45.301682
LeftForeArm 41.618091 0.000000 11.326032
LeftHand -15.766149 -0.000000 14.115277
LeftHandThumb1 -26.253704 0.000000 33.147579
Head -16.376200 14.920870 -26.237678
903
root 3.035172 34.309122 -7.199498 46.448109 20.337872 10.671172
RightUpLeg -36.044694 -40.057394 -12.884992
RightLeg -8.087342 -0.000000 0.000000
RightFoot -2.062147 -31.120423 35.351309
RightToeBase 13.807120 -0.000000 -0.000000
LeftUpLeg -58.957318 -2.035689 13.189858
LeftLeg 0.214603 -0.000000 -0.000000
LeftFoot 8.182631 12.704155 -30.736108
LeftToeBase 11.153600 -0.000000 -0.000000
Spine 74.929634 0.403757 -11.546959
RightShoulder 14.412760 20.884839 -54.662974
RightArm 64.650401 21.043407 45.402336
RightForeArm -32.974312 -0.000000 36.511406
RightHand 5.393255 -0.000000 -12.074865
RightHandThumb1 -24.326973 -0.000000 -32.862282
LeftShoulder 11.918754 31.838812 40.816688
LeftArm 85.549981 -55.177918 -44.784872
LeftForeArm 41.488495 -0.000000 11.278881
LeftHand -15.945356 -0.000000 13.452727
LeftHandThumb1 -26.253704 0.000000 33.147579
Head -16.605125 14.657012 -26.141577
904
root 3.101236 34.296459 -7.221114 47.085825 20.469834 11.073613
RightUpLeg -36.489468 -40.619230 -12.808948
RightLeg -8.180822 -0.000000 0.000000
RightFoot -1.898069 -31.171904 35.279293
RightToeBase 13.730481 -0.000000 -0.000000
LeftUpLeg -59.556137 -2.355647 13.048679
LeftLeg 0.225592 -0.000000 -0.000000
LeftFoot 8.142944 12.619142 -30.936357
LeftToeBase 11.239839 -0.000000 -0.000000
Spine 75.091635 0.334511 -11.695739
RightShoulder 14.220498 20.777496 -54.711250
RightArm 64.888700 21.612094 45.014053
RightForeArm -33.011881 0.000000 36.204114
RightHand 5.426780 0.000000 -11.994538
RightHandThumb1 -24.326973 -0.000000 -32.862282
LeftShoulder 11.922671 31.730739 40.991694
LeftArm 85.697135 -55.763318 -44.679805
LeftForeArm 41.465821 -0.000000 11.183386
LeftHand -15.795773 -0.000000 12.842828
LeftHandThumb1 -26.253704 0.000000 33.147579
Head -16.843931 14.350307 -26.047787
905
root 3.159949 34.287417 -7.240641 47.733272 20.691895 11.486545
RightUpLeg -36.887267 -41.215925 -12.700505
RightLeg -8.282576 -0.000000 0.000000
RightFoot -1.871492 -31.187484 35.374964
RightToeBase 13.786283 -0.000000 -0.000000
LeftUpLeg -60.197591 -2.763501 12.989420
LeftLeg 0.265921 -0.000000 -0.000000
LeftFoot 8.146404 12.658201 -30.915278
LeftToeBase 11.272865 -0.000000 -0.000000
Spine 75.261041 0.202383 -11.732157
RightShoulder 14.040355 20.647587 -54.732950
RightArm 65.029801 22.179978 44.530769
RightForeArm -33.023371 -0.000000 35.934328
RightHand 5.467339 -0.000000 -11.994195
RightHandThumb1 -24.326973 -0.000000 -32.862282
LeftShoulder 11.937718 31.534942 41.203844
LeftArm 86.063258 -56.249805 -44.839122
LeftForeArm 41.630317 -0.000000 11.061748
LeftHand -15.647438 -0.000000 12.211123
LeftHandThumb1 -26.253704 0.000000 33.147579
Head -17.011712 14.047701 -25.895197
906
root 3.214420 34.276619 -7.259142 48.340465 20.844789 11.808776
RightUpLeg -37.306656 -41.657641 -12.615548
RightLeg -8.312426 -0.000000 0.000000
RightFoot -1.841964 -31.189452 35.464797
RightToeBase 13.541527 -0.000000 -0.000000
LeftUpLeg -60.780207 -3.012425 12.880325
LeftLeg 0.273619 -0.000000 -0.000000
LeftFoot 8.178241 12.580113 -30.946708
LeftToeBase 11.274686 -0.000000 -0.000000
Spine 75.418777 0.176216 -11.749197
RightShoulder 13.825067 20.503144 -54.797843
RightArm 65.176466 22.756868 44.169903
RightForeArm -33.230643 0.000000 35.724788
RightHand 5.481239 -0.000000 -11.652224
RightHandThumb1 -24.326973 -0.000000 -32.862282
LeftShoulder 11.948264 31.371614 41.361607
LeftArm 86.413897 -56.800742 -44.922512
LeftForeArm 41.651620 -0.000000 10.984801
LeftHand -15.405693 -0.000000 11.616678
LeftHandThumb1 -26.253704 0.000000 33.147579
Head -17.193038 13.706659 -25.741206
907
root 3.267891 34.267203 -7.278198 48.937585 20.895056 12.103845
RightUpLeg -37.709432 -41.935004 -12.644686
RightLeg -8.340275 -0.000000 0.000000
RightFoot -1.916012 -31.330806 35.666035
RightToeBase 13.710944 -0.000000 -0.000000
LeftUpLeg -61.314714 -3.188361 12.717802
LeftLeg 0.237810 -0.000000 -0.000000
LeftFoot 8.217612 12.548669 -30.931532
LeftToeBase 11.203298 -0.000000 -0.000000
Spine 75.544370 0.235348 -11.856577
RightShoulder 13.623946 20.365386 -54.812064
RightArm 65.360639 23.296380 43.785387
RightForeArm -33.305373 -0.000000 35.467101
RightHand 5.618083 -0.000000 -11.492863
RightHandThumb1 -24.326973 -0.000000 -32.862282
LeftShoulder 11.951015 31.144355 41.514522
LeftArm 86.502675 -57.307226 -44.798049
LeftForeArm 41.596476 0.000000 10.998294
LeftHand -15.178554 -0.000000 11.021255
LeftHandThumb1 -26.253704 0.000000 33.147579
Head -17.350410 13.390783 -25.592696
908
root 3.325965 34.257002 -7.302672 49.538235 21.036707 12.432006
RightUpLeg -38.074073 -42.292541 -12.680477
RightLeg -8.325747 -0.000000 0.000000
RightFoot -1.998992 -31.432140 35.909481
RightToeBase 13.688833 -0.000000 -0.000000
LeftUpLeg -61.903106 -3.491942 12.645744
LeftLeg 0.256008 -0.000000 -0.000000
LeftFoot 8.212688 12.569115 -30.844380
LeftToeBase 11.123490 -0.000000 -0.000000
Spine 75.681195 0.118740 -11.961220
RightShoulder 13.475235 20.284544 -54.826500
RightArm 65.571344 23.792839 43.302550
RightForeArm -33.146668 0.000000 35.091412
RightHand 5.582285 -0.000000 -11.013969
RightHandThumb1 -24.326973 -0.000000 -32.862282
LeftShoulder 11.901544 31.005421 41.541842
LeftArm 86.630688 -57.815904 -44.667159
LeftForeArm 41.732689 -0.000000 11.031470
LeftHand -15.195850 -0.000000 10.512343
LeftHandThumb1 -26.253704 0.000000 33.147579
Head -17.467953 13.143262 -25.540167
909
root 3.377503 34.248566 -7.318862 50.094619 21.086194 12.749742
RightUpLeg -38.433898 -42.567377 -12.790552
RightLeg -8.248428 -0.000000 0.000000
RightFoot -2.146495 -31.503084 36.178539
RightToeBase 13.664912 -0.000000 -0.000000
LeftUpLeg -62.407341 -3.689775 12.435186
LeftLeg 0.273183 -0.000000 -0.000000
LeftFoot 8.191657 12.528578 -30.819788
LeftToeBase 11.128820 -0.000000 -0.000000
Spine 75.858120 0.139597 -12.187702
RightShoulder 13.335514 20.328267 -54.727020
RightArm 65.699108 24.209663 42.794641
RightForeArm -33.142698 -0.000000 34.737360
RightHand 5.631034 -0.000000 -10.954509
RightHandThumb1 -24.326973 -0.000000 -32.862282
LeftShoulder 11.765346 30.944169 41.621258
LeftArm 86.992033 -58.361577 -44.782123
LeftForeArm 41.831732 -0.000000 11.086203
LeftHand -14.936254 -0.000000 10.067593
LeftHandThumb1 -26.253704 0.000000 33.147579
Head -17.632805 12.983064 -25.386380
